<svg width="25" height="24" viewBox="0 0 25 24" fill="none" xmlns="http://www.w3.org/2000/svg">
<path d="M6.75105 6.25105C7.08579 5.91632 7.6285 5.91632 7.96323 6.25105L12.5 10.7878L17.0368 6.25105C17.3715 5.91632 17.9142 5.91632 18.2489 6.25105C18.5837 6.58579 18.5837 7.1285 18.2489 7.46323L13.7122 12L18.2489 16.5368C18.5837 16.8715 18.5837 17.4142 18.2489 17.7489C17.9142 18.0837 17.3715 18.0837 17.0368 17.7489L12.5 13.2122L7.96323 17.7489C7.6285 18.0837 7.08579 18.0837 6.75105 17.7489C6.41632 17.4142 6.41632 16.8715 6.75105 16.5368L11.2878 12L6.75105 7.46323C6.41632 7.1285 6.41632 6.58579 6.75105 6.25105Z" fill="white"/>
</svg>
